<svg id="Capa_1" enable-background="new 0 0 512 512" height="512" viewBox="0 0 512 512" width="512" xmlns="http://www.w3.org/2000/svg"><g><path d="m422 32v-32h-30v32h-121v-32h-30v32h-121v-32h-30v32h-90v480h512v-480zm-332 30v27h30v-27h121v27h30v-27h121v27h30v-27h60v45h-452v-45zm-60 75h452v242.787l-102.213 102.213h-349.787zm392.213 345 59.787-59.787v59.787z"/><path d="m390 300c0-24.262-19.738-44-44-44h-16v-39h-30v39h-30v-39h-30v39h-30v-39h-30v39h-16c-24.262 0-44 19.738-44 44v106h270zm-226-14h182c7.72 0 14 6.28 14 14v17.042h-210v-17.042c0-7.72 6.28-14 14-14zm-14 90v-28.958h210v28.958z"/></g></svg>